<svg xmlns="http://www.w3.org/2000/svg" viewBox="0 0 32 32">
  <defs>
    <linearGradient id="g" x1="0%" y1="0%" x2="100%" y2="100%">
      <stop offset="0%" style="stop-color:#6366f1"/>
      <stop offset="100%" style="stop-color:#06b6d4"/>
    </linearGradient>
  </defs>
  <rect width="32" height="32" rx="6" fill="#07080f"/>
  <path d="M10.5 5C9.12 5 8 6.34 8 8s1.12 3 2.5 3S13 9.66 13 8s-1.12-3-2.5-3zm5.5 0c-1.38 0-2.5 1.34-2.5 3s1.12 3 2.5 3 2.5-1.34 2.5-3-1.12-3-2.5-3zm5 0C19.62 5 18.5 6.34 18.5 8s1.12 3 2.5 3 2.5-1.34 2.5-3-1.12-3-2.5-3zM8 13c-1.38 0-2.5.97-2.5 2.5C5.5 18.06 7.5 20 9.5 20c.73 0 1.41-.22 2-.6V22c0 1.1.9 2 2 2s2-.9 2-2v-2.6c.59.38 1.27.6 2 .6 2 0 4-1.94 4-4.5 0-1.53-1.12-2.5-2.5-2.5-1.1 0-2.04.52-2.5 1.32-.46-.8-1.4-1.32-2.5-1.32s-2.04.52-2.5 1.32C10.54 13.52 9.6 13 8 13z" fill="url(#g)"/>
</svg>
